<svg xmlns="http://www.w3.org/2000/svg" xmlns:xlink="http://www.w3.org/1999/xlink" version="1.1" x="0px" y="0px" viewBox="0 0 100 100" enable-background="new 0 0 100 100" xml:space="preserve"><g><path d="M38.747,77.577c-0.091,0-0.183-0.004-0.275-0.013L23.681,76.22c-6.996-0.636-12.688-6.868-12.688-13.893v-28.25   c0-1.657,1.343-3,3-3s3,1.343,3,3v28.25c0,3.936,3.311,7.562,7.23,7.918l14.791,1.345c1.65,0.149,2.866,1.608,2.716,3.259   C41.589,76.406,40.281,77.577,38.747,77.577z"/></g><path d="M77.006,3.334c-7.456,0-13.5,6.045-13.5,13.5s6.044,13.5,13.5,13.5c7.455,0,13.5-6.045,13.5-13.5S84.461,3.334,77.006,3.334  z M77.838,18.082c-0.251,0.167-0.541,0.252-0.832,0.252c-0.243,0-0.239-0.059-0.461-0.177C76.058,17.896,76,17.387,76,16.834V8h3  v6.031l4.171-2.945l1.54,2.496L77.838,18.082z"/><path d="M29.993,12.327c-4.411,0-8,3.589-8,8s3.589,8,8,8s8-3.589,8-8S34.404,12.327,29.993,12.327z"/><path d="M46.813,94h6.083l-4.522-26.945c-0.404-2.412-2.543-4.418-4.976-4.665L35,61.534V41.327c0-4.785-3.014-8-7.5-8  s-7.5,3.215-7.5,8v20c0,2.642,2.055,4.921,4.683,5.188l17.823,1.814L46.813,94z"/></svg>