<svg xmlns="http://www.w3.org/2000/svg" xmlns:xlink="http://www.w3.org/1999/xlink" version="1.1" x="0px" y="0px" viewBox="-255 347 100 100" enable-background="new -255 347 100 100" xml:space="preserve"><g display="none"><path display="inline" d="M-983.7,1161.9h-15v4.3h11.8c1.2,0,2.1,1,2.1,2.1v38.4c0,1.2-1,2.1-2.1,2.1h-38.4c-1.2,0-2.1-1-2.1-2.1   v-38.4c0-1.2,1-2.1,2.1-2.1h11.8v-4.3h-15c-1.8,0-3.2,1.4-3.2,3.2v44.9c0,1.8,1.4,3.2,3.2,3.2h44.9c1.8,0,3.2-1.4,3.2-3.2V1165   C-980.5,1163.3-981.9,1161.9-983.7,1161.9z"/><path display="inline" d="M-1006.1,1161.9c1.2,0,2.1,1,2.1,2.1v27.8c0,1.2-1,2.1-2.1,2.1c-1.2,0-2.1-1-2.1-2.1V1164   C-1008.3,1162.8-1007.3,1161.9-1006.1,1161.9z"/><path display="inline" d="M-1004.6,1193.3c-0.8,0.8-2.1,0.8-3,0l-7.5-7.5c-0.8-0.8-0.8-2.1,0-3c0.8-0.8,2.1-0.8,3,0l7.5,7.5   C-1003.8,1191.1-1003.8,1192.4-1004.6,1193.3z"/><path display="inline" d="M-1007.7,1193.3c0.8,0.8,2.1,0.8,3,0l7.5-7.5c0.8-0.8,0.8-2.1,0-3c-0.8-0.8-2.1-0.8-3,0l-7.5,7.5   C-1008.5,1191.1-1008.5,1192.4-1007.7,1193.3z"/></g><text transform="matrix(1 0 0 1 -701.7407 894.4443)" font-family="'HelveticaNeue-Bold'" font-size="3.7037">Created by Ashwin Dinesh</text><text transform="matrix(1 0 0 1 -701.7407 898.1484)" font-family="'HelveticaNeue-Bold'" font-size="3.7037">from the Noun Project</text><ellipse fill="none" cx="-205" cy="401" rx="34.9" ry="35"/><path d="M-189.3,369.7l-2.5,5.5c9.3,4.8,15.7,14.5,15.7,25.8c0,16-13,29-28.9,29s-28.9-13-28.9-29c0-11.2,6.4-20.9,15.7-25.8  l-2.5-5.5c-11.4,5.8-19.2,17.6-19.2,31.2c0,19.3,15.6,35,34.9,35s34.9-15.7,34.9-35C-170.1,387.3-177.9,375.5-189.3,369.7z"/><ellipse cx="-219.4" cy="372.5" rx="3" ry="3"/><ellipse cx="-190.6" cy="372.5" rx="3" ry="3"/><path d="M-205,358.1c1.7,0,3,1.3,3,3V401c0,1.7-1.3,3-3,3s-3-1.3-3-3v-39.9C-208,359.4-206.7,358.1-205,358.1z"/></svg>