<svg xmlns="http://www.w3.org/2000/svg" xmlns:xlink="http://www.w3.org/1999/xlink" version="1.1" x="0px" y="0px" viewBox="0 0 100 100" enable-background="new 0 0 100 100" xml:space="preserve"><g><polygon points="50.9,18.8 50.7,18.8 50.1,24.7 51.5,24.7  "/><polygon points="44.2,74.9 43.3,83.6 50.8,83.6 58.4,83.6 57.4,74.9  "/><polygon points="45.1,67.8 56.6,67.8 55.7,60.5 46,60.5  "/><polygon points="53.2,39.1 52.3,31.9 49.3,31.9 48.4,39.1  "/></g><g><polygon points="48.5,18.8 44.8,18.8 30,44 36.2,44  "/><polygon points="6.8,83.6 16.9,83.6 30.5,55.7 23.2,55.7  "/><polygon points="84.6,83.6 94.6,83.6 78.3,55.7 71,55.7  "/><polygon points="56.7,18.8 53,18.8 65.3,44 71.5,44  "/></g><g><path d="M13.5,47.6L13.5,47.6c0-2.1-1.6-3.7-3.7-3.7c-2.1,0-3.7,1.6-3.7,3.7l0,0l0,0v19.5h7.4V47.6H13.5z"/><g><polygon points="65.3,46.8 60.7,52.4 65.7,52.4 70.4,46.8   "/><polygon points="75.8,46.8 71.2,52.4 76.2,52.4 80.8,46.8   "/><polygon points="54.9,46.8 50.2,52.4 55.2,52.4 59.9,46.8   "/><polygon points="44.5,46.8 39.7,52.4 44.9,52.4 49.5,46.8   "/><polygon points="33.9,46.8 29.3,52.4 34.4,52.4 39,46.8   "/><polygon points="86.2,46.8 81.6,52.4 86.6,52.4 91.3,46.8   "/><polygon points="93.9,50.3 92,52.4 93.9,52.4   "/><polygon points="13,46.8 11,49.2 11,52.4 13.4,52.4 18.2,46.8   "/><polygon points="23.5,46.8 18.9,52.4 23.9,52.4 28.6,46.8   "/></g></g></svg>